<?xml version="1.0" encoding="utf-8"?>
<!-- Generator: Adobe Illustrator 19.0.0, SVG Export Plug-In . SVG Version: 6.00 Build 0)  -->
<svg version="1.1" id="Layer_1" xmlns="http://www.w3.org/2000/svg" xmlns:xlink="http://www.w3.org/1999/xlink" x="0px" y="0px"
	 viewBox="-627 389 24 24" style="enable-background:new -627 389 24 24;" xml:space="preserve">
<style type="text/css">
	.st0{fill:#E9EAEA;}
</style>
<g>
	<path class="st0" d="M-618,398c0-1.7,1.3-3,3-3s3,1.3,3,3s-1.3,3-3,3S-618,399.7-618,398z M-615,403c-4.6,0-6,3.3-6,3.3v1.7h12
		v-1.7C-609,406.3-610.4,403-615,403z"/>
</g>
<g>
	<g>
		<circle class="st0" cx="-608.5" cy="397.5" r="2.5"/>
	</g>
	<g>
		<path class="st0" d="M-608.5,402c-1.2,0-2.1,0.3-2.8,0.8c2.3,1.1,3.2,3,3.2,3.2v0.1h4.1v-1.3C-604,404.7-605.1,402-608.5,402z"/>
	</g>
</g>
<g>
	<g>
		<circle class="st0" cx="-608.5" cy="397.5" r="2.5"/>
	</g>
	<g>
		<path class="st0" d="M-608.5,402c-1.2,0-2.1,0.3-2.8,0.8c2.3,1.1,3.2,3,3.2,3.2v0.1h4.1v-1.3C-604,404.7-605.1,402-608.5,402z"/>
	</g>
</g>
<g>
	<g>
		<circle class="st0" cx="-621.5" cy="397.5" r="2.5"/>
	</g>
	<g>
		<path class="st0" d="M-621.5,402c1.2,0,2.1,0.3,2.8,0.8c-2.3,1.1-3.2,3-3.2,3.2v0.1h-4.1v-1.3C-626,404.7-624.9,402-621.5,402z"/>
	</g>
</g>
</svg>
