<?xml version="1.0" encoding="utf-8"?>
<!-- Generator: Adobe Illustrator 19.0.0, SVG Export Plug-In . SVG Version: 6.00 Build 0)  -->
<svg version="1.1" id="Layer_1" xmlns:sketch="http://www.bohemiancoding.com/sketch/ns"
	 xmlns="http://www.w3.org/2000/svg" xmlns:xlink="http://www.w3.org/1999/xlink" x="0px" y="0px" viewBox="-627 389 24 24"
	 style="enable-background:new -627 389 24 24;" xml:space="preserve">
<style type="text/css">
	.st0{fill:#E9EAEA;}
</style>
<title></title>
<desc></desc>
<g id="miu">
	<g id="Artboard-1" transform="translate(-215.000000, -371.000000)">
		<g id="slice" transform="translate(215.000000, 119.000000)">
		</g>
		<path id="device-board-presentation-empty-outline-stroke" class="st0" d="M-397.8,780h6.3c0,0,0.5,0.1,0.5-0.5s-0.5-0.5-0.5-0.5
			h-16c0,0-0.5,0-0.5,0.5s0.5,0.5,0.5,0.5h6.3l0,0l-2.5,2.5l0.7,0.7l3.2-3.2h0.6l3.2,3.2l0.7-0.7L-397.8,780z M-406,764c0,0-2,0-2,2
			v10c0,2,2,2,2,2h13c0,0,2,0,2-2v-10c0-2-2-2-2-2H-406z M-406,765c0,0-1,0-1,1v10c0,1,1,1,1,1h13c0,0,1,0,1-1v-10c0-1-1-1-1-1H-406
			z M-399,762l0.1-1h-1.1v1h-1v1h3v-1H-399z"/>
	</g>
</g>
</svg>
