<?xml version="1.0" encoding="utf-8"?>
<!-- Generator: Adobe Illustrator 19.0.0, SVG Export Plug-In . SVG Version: 6.00 Build 0)  -->
<svg version="1.1" id="Layer_1" xmlns="http://www.w3.org/2000/svg" xmlns:xlink="http://www.w3.org/1999/xlink" x="0px" y="0px"
	 viewBox="-292 170.3 256 256" style="enable-background:new -292 170.3 256 256;" xml:space="preserve">
<style type="text/css">
	.st0{fill:#E9EAEA;}
</style>
<path class="st0" d="M-164,339.5c-1.6,0-3.3-0.6-4.5-1.9l-56.7-56.7c-2.5-2.5-2.5-6.6,0-9.1c2.5-2.5,6.6-2.5,9.1,0L-164,324
	l52.2-52.2c2.5-2.5,6.6-2.5,9,0c2.5,2.5,2.5,6.6,0,9l-56.7,56.7C-160.7,338.8-162.4,339.5-164,339.5z M-36,298.3
	c0-70.6-57.4-128-128-128s-128,57.4-128,128s57.4,128,128,128S-36,368.9-36,298.3z M-48.8,298.3c0,63.5-51.7,115.2-115.2,115.2
	c-63.5,0-115.2-51.7-115.2-115.2c0-63.5,51.7-115.2,115.2-115.2C-100.5,183.1-48.8,234.8-48.8,298.3z"/>
</svg>
