<?xml version="1.0" encoding="utf-8"?>
<!-- Generator: Adobe Illustrator 19.0.0, SVG Export Plug-In . SVG Version: 6.00 Build 0)  -->
<svg version="1.1" id="Layer_1" xmlns="http://www.w3.org/2000/svg" xmlns:xlink="http://www.w3.org/1999/xlink" x="0px" y="0px"
	 viewBox="-607 369 64 64" style="enable-background:new -607 369 64 64;" xml:space="preserve">
<style type="text/css">
	.st0{fill:#E9EAEA;}
</style>
<path class="st0" d="M-544.1,385.8L-544.1,385.8c-1.2,0-1.3-0.9-1.3-1.4v-6.9c0-0.7-0.6-1.3-1.3-1.3h-19.8c-5,0-6.8,1.8-7.3,2.4
	l-0.1,0.2l0,0l-0.4,0.5c0,0,0,0,0,0c-0.5,0.7-1,0.4-1.2,0.2l-0.7-0.9l-0.4-0.4c-0.6-0.7-2.2-1.9-5.5-1.9h-21.1
	c-0.7,0-1.3,0.6-1.3,1.3v6.8c0,1.2-0.6,1.4-1,1.5h-0.3c-0.3,0-1.1,0.2-1.1,1.6V420c0,0.8,0.6,1.4,1.4,1.4h19.2
	c6.1,0,8.8,2.3,9.6,3.2l0.5,0.6h0c0,0,1.2,1.4,2.5,0l0,0l0.3-0.3v0l0,0l0.3-0.4c0,0,0.1-0.1,0.2-0.2c1-1,3.6-2.8,8.6-2.8h19.8
	c0.8,0,1.4-0.6,1.4-1.4v-32.8C-543.1,385.9-543.9,385.8-544.1,385.8z M-548.4,414.9c0,0.6-0.5,1.2-1.2,1.2h-16.3
	c-5.8,0-7.9,2.6-7.9,2.6l-0.3,0.4l-0.1,0.2c0,0,0,0,0,0c-0.6,0.8-1.4,0-1.4,0l-0.4-0.5c-0.3-0.3-2.4-2.7-7.6-2.7h-16.8
	c-0.7,0-1.2-0.5-1.2-1.2v-34.7c0-0.6,0.5-1.2,1.2-1.2h13c9.7,0,10.6,5.5,10.7,7.1v24.1c0,1.8,0.8,2.1,1.3,2.1h0.7
	c0.5,0,1.2-0.3,1.2-1.7v-24.8h0c0.1-2,0.9-6.8,6.7-6.8h17c0.7,0,1.2,0.5,1.2,1.2V414.9z"/>
</svg>
