<?xml version="1.0" encoding="utf-8"?>
<!-- Generator: Adobe Illustrator 19.0.0, SVG Export Plug-In . SVG Version: 6.00 Build 0)  -->
<svg version="1.1" id="Layer_1" xmlns="http://www.w3.org/2000/svg" xmlns:xlink="http://www.w3.org/1999/xlink" x="0px" y="0px"
	 viewBox="-383 145 512 512" style="enable-background:new -383 145 512 512;" xml:space="preserve">
<style type="text/css">
	.st0{fill:#E9EAEA;}
</style>
<g>
	<g>
		<path class="st0" d="M62,325.9h-277c-14,0-25.3-12.7-25.3-28.3c0-15.5,11.3-28.3,25.3-28.3H62c14,0,25.3,12.7,25.3,28.3
			C87.3,313.2,76,325.9,62,325.9z"/>
	</g>
	<circle class="st0" cx="-301.3" cy="297.6" r="36"/>
	<g>
		<path class="st0" d="M62,430.6h-277c-14,0-25.3-12.7-25.3-28.3s11.3-28.3,25.3-28.3H62c14,0,25.3,12.7,25.3,28.3
			S76,430.6,62,430.6z"/>
	</g>
	<circle class="st0" cx="-301.3" cy="402.4" r="36"/>
	<g>
		<path class="st0" d="M62,535.3h-277c-14,0-25.3-12.7-25.3-28.3c0-15.5,11.3-28.3,25.3-28.3H62c14,0,25.3,12.7,25.3,28.3
			C87.3,522.6,76,535.3,62,535.3z"/>
	</g>
	<circle class="st0" cx="-301.3" cy="507.1" r="36"/>
</g>
</svg>
